# xmcd
#
# Track frame offsets:
# 150
# 12836
# 29758
# 45921
# 69021
# 95110
# 108472
# 127836
# 144145
# 167667
#
# Disc length: 2515 seconds
#
#
# Revision: 0
# Processed by: cddbd v1.5.1PL0 Copyright (c) Steve Scherf et al.
# Submitted via: FreeRIP 2.60 
#
DISCID=7609d10a
DTITLE=The Lamont Cranston Band - LC
DYEAR=1978
DGENRE=Blues
TTITLE0=Swing
TTITLE1=Takin' A Chance
TTITLE2=Close To You
TTITLE3=E Jam
TTITLE4=The Darker Side
TTITLE5=Checking Up On My Baby
TTITLE6=Tin Pan Alley
TTITLE7=Riding With Daddy
TTITLE8=Everything's Gonna Be Alright
TTITLE9=Lickin' Stick
EXTD=Waterhourse Records\nRecorded From LP purchased at Concert
EXTT0=
EXTT1=
EXTT2=
EXTT3=
EXTT4=
EXTT5=
EXTT6=
EXTT7=
EXTT8=
EXTT9=
PLAYORDER=
